HIERARCHY
ROOT Hips
{
  OFFSET 1.73907 43.2358 0.0522707
  CHANNELS 6 Xposition Yposition Zposition Zrotation Xrotation Yrotation
  JOINT Bip01_Pelvis
  {
    OFFSET 0 0 0
    CHANNELS 6 Xposition Yposition Zposition Zrotation Xrotation Yrotation
    JOINT BN_Tail_01
    {
      OFFSET -2.28979 -2.39917 0
      CHANNELS 6 Xposition Yposition Zposition Zrotation Xrotation Yrotation
      JOINT BN_Tail_02
      {
        OFFSET 9.67405 0 0
        CHANNELS 6 Xposition Yposition Zposition Zrotation Xrotation Yrotation
        JOINT BN_Tail_03
        {
          OFFSET 10.5192 0 -1.14441e-005
          CHANNELS 6 Xposition Yposition Zposition Zrotation Xrotation Yrotation
          JOINT BN_Tail_04
          {
            OFFSET 8.16754 0 0
            CHANNELS 6 Xposition Yposition Zposition Zrotation Xrotation Yrotation
            End Site
            {
              OFFSET 0 0 0
            }
          }
        }
      }
    }
    JOINT Bip01_Spine
    {
      OFFSET 2.25317 -0.00479889 0
      CHANNELS 6 Xposition Yposition Zposition Zrotation Xrotation Yrotation
      JOINT Bip01_R_Thigh
      {
        OFFSET -2.32652 -0.461891 -2.25534
        CHANNELS 6 Xposition Yposition Zposition Zrotation Xrotation Yrotation
        JOINT Bip01_R_Calf
        {
          OFFSET 9.47902 0 0
          CHANNELS 6 Xposition Yposition Zposition Zrotation Xrotation Yrotation
          JOINT Bip01_R_Foot
          {
            OFFSET 8.42616 0 0
            CHANNELS 6 Xposition Yposition Zposition Zrotation Xrotation Yrotation
            JOINT Bip01_R_Toe1
            {
              OFFSET 1.4015 3.97627 -1.33795
              CHANNELS 6 Xposition Yposition Zposition Zrotation Xrotation Yrotation
              JOINT Bip01_R_Toe11
              {
                OFFSET 2.94553 0 0
                CHANNELS 6 Xposition Yposition Zposition Zrotation Xrotation Yrotation
                JOINT Bip01_R_Toe1Nub
                {
                  OFFSET 2.52656 0 0
                  CHANNELS 6 Xposition Yposition Zposition Zrotation Xrotation Yrotation
                  End Site
                  {
                    OFFSET 0 0 0
                  }
                }
              }
            }
            JOINT Bip01_R_Toe0
            {
              OFFSET 2.09729 6.93129 0.0277901
              CHANNELS 6 Xposition Yposition Zposition Zrotation Xrotation Yrotation
              JOINT Bip01_R_Toe01
              {
                OFFSET 3.0714 0 0
                CHANNELS 6 Xposition Yposition Zposition Zrotation Xrotation Yrotation
                JOINT Bip01_R_Toe0Nub
                {
                  OFFSET 3.37999 0 0
                  CHANNELS 6 Xposition Yposition Zposition Zrotation Xrotation Yrotation
                  End Site
                  {
                    OFFSET 0 0 0
                  }
                }
              }
            }
          }
        }
      }
      JOINT Bip01_L_Thigh
      {
        OFFSET -2.07803 -0.462101 2.48614
        CHANNELS 6 Xposition Yposition Zposition Zrotation Xrotation Yrotation
        JOINT Bip01_L_Calf
        {
          OFFSET 9.47902 0 0
          CHANNELS 6 Xposition Yposition Zposition Zrotation Xrotation Yrotation
          JOINT Bip01_L_Foot
          {
            OFFSET 8.42617 0 0
            CHANNELS 6 Xposition Yposition Zposition Zrotation Xrotation Yrotation
            JOINT Bip01_L_Toe1
            {
              OFFSET 1.40151 3.97627 1.33796
              CHANNELS 6 Xposition Yposition Zposition Zrotation Xrotation Yrotation
              JOINT Bip01_L_Toe11
              {
                OFFSET 2.94554 0 0
                CHANNELS 6 Xposition Yposition Zposition Zrotation Xrotation Yrotation
                JOINT Bip01_L_Toe1Nub
                {
                  OFFSET 2.52656 0 0
                  CHANNELS 6 Xposition Yposition Zposition Zrotation Xrotation Yrotation
                  End Site
                  {
                    OFFSET 0 0 0
                  }
                }
              }
            }
            JOINT Bip01_L_Toe0
            {
              OFFSET 2.0973 6.93128 -0.0277834
              CHANNELS 6 Xposition Yposition Zposition Zrotation Xrotation Yrotation
              JOINT Bip01_L_Toe01
              {
                OFFSET 3.07141 0 0
                CHANNELS 6 Xposition Yposition Zposition Zrotation Xrotation Yrotation
                JOINT Bip01_L_Toe0Nub
                {
                  OFFSET 3.37999 0 0
                  CHANNELS 6 Xposition Yposition Zposition Zrotation Xrotation Yrotation
                  End Site
                  {
                    OFFSET 0 0 0
                  }
                }
              }
            }
          }
        }
      }
      JOINT Bip01_Spine1
      {
        OFFSET 6.17162 -0.00484467 0
        CHANNELS 6 Xposition Yposition Zposition Zrotation Xrotation Yrotation
        JOINT BN_R_Clavicle_01
        {
          OFFSET 6.15897 -2.02444 -2.78435
          CHANNELS 6 Xposition Yposition Zposition Zrotation Xrotation Yrotation
          JOINT BN_R_UpperArm_01
          {
            OFFSET 3.43915 0 0
            CHANNELS 6 Xposition Yposition Zposition Zrotation Xrotation Yrotation
            JOINT BN_R__Forearm_01
            {
              OFFSET 10.2529 0 0
              CHANNELS 6 Xposition Yposition Zposition Zrotation Xrotation Yrotation
              JOINT BN_R_Hand_01
              {
                OFFSET 16.2051 0 0
                CHANNELS 6 Xposition Yposition Zposition Zrotation Xrotation Yrotation
                JOINT BN_R_Finger_07
                {
                  OFFSET 2.2539 2.19923 0.192043
                  CHANNELS 6 Xposition Yposition Zposition Zrotation Xrotation Yrotation
                  End Site
                  {
                    OFFSET 0 0 0
                  }
                }
                JOINT BN_R_Finger_01
                {
                  OFFSET 2.17806 -1.99631 -0.219296
                  CHANNELS 6 Xposition Yposition Zposition Zrotation Xrotation Yrotation
                  End Site
                  {
                    OFFSET 0 0 0
                  }
                }
                JOINT BN_R_Finger_05
                {
                  OFFSET 3.30715 1.42802 0.17391
                  CHANNELS 6 Xposition Yposition Zposition Zrotation Xrotation Yrotation
                  End Site
                  {
                    OFFSET 0 0 0
                  }
                }
                JOINT BN_R_Finger_03
                {
                  OFFSET 3.93641 -0.769831 0.580946
                  CHANNELS 6 Xposition Yposition Zposition Zrotation Xrotation Yrotation
                  End Site
                  {
                    OFFSET 0 0 0
                  }
                }
              }
            }
          }
        }
        JOINT BN_L_Clavicle_01
        {
          OFFSET 6.15897 -2.02445 2.78458
          CHANNELS 6 Xposition Yposition Zposition Zrotation Xrotation Yrotation
          JOINT BN_L_UpperArm_01
          {
            OFFSET 3.43915 0 0
            CHANNELS 6 Xposition Yposition Zposition Zrotation Xrotation Yrotation
            JOINT BN_L__Forearm_01
            {
              OFFSET 10.2529 0 0
              CHANNELS 6 Xposition Yposition Zposition Zrotation Xrotation Yrotation
              JOINT BN_L_Hand_01
              {
                OFFSET 16.2051 0 0
                CHANNELS 6 Xposition Yposition Zposition Zrotation Xrotation Yrotation
                JOINT BN_L_Finger_05
                {
                  OFFSET 3.30715 -1.42803 0.173891
                  CHANNELS 6 Xposition Yposition Zposition Zrotation Xrotation Yrotation
                  End Site
                  {
                    OFFSET 0 0 0
                  }
                }
                JOINT BN_L_Finger_07
                {
                  OFFSET 2.2539 -2.19925 0.19203
                  CHANNELS 6 Xposition Yposition Zposition Zrotation Xrotation Yrotation
                  End Site
                  {
                    OFFSET 0 0 0
                  }
                }
                JOINT BN_L_Finger_01
                {
                  OFFSET 2.17804 1.99629 -0.219303
                  CHANNELS 6 Xposition Yposition Zposition Zrotation Xrotation Yrotation
                  End Site
                  {
                    OFFSET 0 0 0
                  }
                }
                JOINT BN_L_Finger_03
                {
                  OFFSET 3.9364 0.769825 0.580943
                  CHANNELS 6 Xposition Yposition Zposition Zrotation Xrotation Yrotation
                  End Site
                  {
                    OFFSET 0 0 0
                  }
                }
              }
            }
          }
        }
        JOINT Bip01_Neck
        {
          OFFSET 7.02381 -0.81237 0
          CHANNELS 6 Xposition Yposition Zposition Zrotation Xrotation Yrotation
          JOINT Bip01_Head
          {
            OFFSET 1.54249 1.14441e-005 0
            CHANNELS 6 Xposition Yposition Zposition Zrotation Xrotation Yrotation
            JOINT BN_Mouth_01
            {
              OFFSET 2.32836 0.166542 0
              CHANNELS 6 Xposition Yposition Zposition Zrotation Xrotation Yrotation
              End Site
              {
                OFFSET 0 0 0
              }
            }
            JOINT BN_R_Ear_01
            {
              OFFSET 3.4208 -0.773972 -2.25959
              CHANNELS 6 Xposition Yposition Zposition Zrotation Xrotation Yrotation
              End Site
              {
                OFFSET 0 0 0
              }
            }
            JOINT BN_L_Ear_01
            {
              OFFSET 3.4208 -0.773976 2.25975
              CHANNELS 6 Xposition Yposition Zposition Zrotation Xrotation Yrotation
              End Site
              {
                OFFSET 0 0 0
              }
            }
            JOINT Bip01_HeadNub
            {
              OFFSET 6.74789 0 0
              CHANNELS 6 Xposition Yposition Zposition Zrotation Xrotation Yrotation
              End Site
              {
                OFFSET 0 0 0
              }
            }
          }
        }
      }
    }
  }
}
MOTION
Frames:	4
Frame Time:	0.0333333
1.93373 66.2307 0.820097 27.719 -86.9138 24.3076 4.76837e-007 0 0 -89.9986 -0.00147886 -93.5347 -2.28978 -2.39919 5.96046e-008 -75.9411 76.0167 -72.7515 9.67405 -1.77636e-015 9.53674e-007 -10.6336 2.81755 6.73374 10.5192 9.53674e-007 -1.90735e-006 -10.5233 17.5596 -18.3554 8.16752 1.90735e-006 3.8147e-006 -22.5248 9.12275 -23.5008 2.25281 -0.00395823 -0.139342 38.305 3.54494 3.79592 -1.6079 1.2574 -2.42899 -70.777 -2.75337 168.111 9.47902 -3.8147e-006 8.88179e-015 -87.2881 -4.43614e-007 8.48338e-007 8.42616 2.13163e-014 -2.66454e-015 -49.0444 5.3221 12.1242 1.40146 3.97644 -1.33748 44.4113 -48.9896 -0.637723 2.94553 3.8147e-006 1.56319e-013 -18.05 4.82056e-006 2.84252e-006 2.52655 3.8147e-006 -2.4869e-014 -2.31809e-006 1.01206e-005 3.64556e-007 2.09712 6.93134 0.028598 35.4652 9.86496e-006 -6.3251e-006 3.0714 -3.8147e-006 -4.76837e-007 -8.37967 -0.00811198 0.0446376 3.37999 3.81475e-006 -0.000898838 -8.74561e-007 9.77128e-006 -2.19335e-007 -1.92205 1.55203 2.29908 -64.7001 -10.838 175.164 9.47901 -1.42109e-014 1.77636e-015 -61.2416 4.00503e-006 8.89516e-006 8.42617 1.06581e-014 0 -42.1739 -0.423878 -4.38484 1.40146 3.9762 1.3382 76.94 44.3766 -23.3673 2.94554 -0.000860214 -0.000804901 -20.1565 -0.00663696 0.0342394 2.52657 0.000787735 0.000793457 -179.965 0.00205064 0.0179104 2.09728 6.9313 -0.0273738 24.5414 -1.47956e-007 1.1887e-007 3.07141 -1.90735e-006 -8.88179e-016 -20.4478 -0.0187695 0.0467731 3.38 0 -4.76837e-007 179.961 -0.001901 -0.00725316 6.17424 -0.00452423 -1.66978e-013 42.4084 -2.129 -14.4283 6.15898 -2.02443 -2.78435 -177.673 11.0505 77.3955 3.43915 -7.6294e-006 -4.54748e-013 -36.6307 77.2463 -42.3107 10.2529 -2.28882e-005 -5.72205e-006 -24.6151 -2.32298 -0.542678 16.2051 3.8147e-006 -3.8147e-006 22.1712 6.03387 16.9087 2.25394 2.19923 0.192019 68.4715 0.489644 25.3119 2.17808 -1.99631 -0.219315 -70.914 -0.180982 2.08644 3.30718 1.42802 0.173882 22.8469 1.06319 17.0445 3.93642 -0.769833 0.58092 -4.62722 1.06552 1.62784 6.15897 -2.02446 2.78458 0.594939 2.30388 -103.02 3.43915 9.23706e-013 3.8147e-006 68.8359 -53.7231 -4.06346 10.2529 -5.97744e-013 3.8147e-006 30.643 1.19848 4.55765 16.2051 -3.8147e-006 -3.8147e-006 -27.4124 3.72495 12.1345 3.30713 -1.42802 0.173901 -22.3008 -0.993529 23.5462 2.25389 -2.19924 0.192037 -68.4164 -0.460394 31.5803 2.17803 1.9963 -0.219301 71.0567 0.17998 -0.191625 3.93638 0.769833 0.580949 0.601221 -2.68782 6.50319 7.02381 -0.812382 -1.84005e-008 10.998 -7.55441e-007 -2.51324e-007 1.54249 -7.6294e-006 -1.14131e-013 -54.3194 -6.44836 8.29008 2.10593 -0.356748 0.0332334 -92.7017 -0.0306091 -179.971 3.4208 -0.773963 -2.25959 149.331 2.86025 173.416 3.4208 -0.773973 2.25975 -32.596 1.1045 -8.81629 6.74789 1.90735e-006 -1.33227e-015 -2.34975e-006 -5.98431e-008 1.96309e-008 
2.00621 66.5574 0.806961 32.9901 -86.7536 29.869 4.76837e-007 -4.44089e-016 0 -89.9986 -0.00147886 -93.5347 -2.28978 -2.39919 5.96046e-008 -75.7582 75.3343 -74.189 9.67405 -1.77636e-015 9.53674e-007 -10.8439 2.03833 8.23531 10.5192 9.53674e-007 -1.90735e-006 -11.2463 18.4187 -16.03 8.16752 1.90735e-006 3.8147e-006 -24.3282 9.50165 -21.2622 2.25281 -0.00395823 -0.139342 39.2887 3.82068 4.05064 -1.57272 1.27568 -2.44212 -71.1032 -2.4967 168.392 9.47902 -3.8147e-006 1.06581e-014 -84.7012 -3.67479e-007 8.45038e-007 8.42616 0 8.88179e-016 -49.937 5.13802 11.7432 1.40146 3.97644 -1.33748 45.7353 -48.9905 0.362176 2.94553 3.8147e-006 1.35003e-013 -17.4412 4.70317e-006 3.05076e-006 2.52655 3.8147e-006 -2.84217e-014 -2.31809e-006 1.01206e-005 3.64556e-007 2.09712 6.93134 0.028598 36.3475 1.03157e-005 -5.77254e-006 3.0714 -3.8147e-006 -4.76837e-007 -7.75913 -0.00763029 0.0447397 3.37999 3.81475e-006 -0.000898838 -8.74561e-007 9.77128e-006 -2.19335e-007 -1.90739 1.59345 2.28296 -66.254 -10.7191 174.771 9.47901 0 3.55271e-015 -61.4693 4.03296e-006 8.91224e-006 8.42617 -3.55271e-015 -3.55271e-015 -41.631 -1.51072 -5.04678 1.40146 3.9762 1.3382 76.544 44.498 -23.0901 2.94554 -0.000860214 -0.000804901 -19.5423 -0.00628033 0.034339 2.52657 0.000787735 0.000793457 -179.965 0.00205064 0.0179104 2.09728 6.9313 -0.0273738 25.4226 -1.15525e-007 1.23779e-007 3.07141 -1.90735e-006 0 -19.8334 -0.0147894 0.0373303 3.38 2.13163e-014 -4.76837e-007 179.961 -0.001901 -0.00725316 6.17424 -0.00452423 -4.2899e-013 41.9806 -1.96987 -14.2909 6.15898 -2.02443 -2.78435 -177.613 11.2966 77.3657 3.43915 -7.6294e-006 -4.54748e-013 -40.7411 74.9084 -39.0652 10.2529 -2.28882e-005 -5.72205e-006 -25.9343 -2.67259 -1.94011 16.2051 3.8147e-006 -3.8147e-006 18.9507 9.68859 14.3632 2.25394 2.19923 0.192019 68.4903 0.496488 22.9421 2.17808 -1.99631 -0.219315 -70.9045 -0.183302 0.818474 3.30718 1.42802 0.173882 24.0734 0.861111 13.6853 3.93642 -0.769833 0.58092 -4.27052 1.96348 -2.15299 6.15897 -2.02446 2.78458 0.426307 1.59345 -102.87 3.43915 9.09495e-013 3.8147e-006 68.0626 -51.7783 -5.13384 10.2529 -6.26166e-013 3.8147e-006 32.2773 2.3615 2.48495 16.2051 -3.8147e-006 -3.8147e-006 -24.9349 0.372924 9.49124 3.30713 -1.42802 0.173901 -23.0132 -0.841806 20.6067 2.25389 -2.19924 0.192037 -68.4377 -0.470684 29.3664 2.17803 1.9963 -0.219301 71.0729 0.184634 -1.73923 3.93638 0.769833 0.580949 0.617899 -2.74082 2.28177 7.02381 -0.812382 -1.87429e-008 10.998 -7.84376e-007 -2.55918e-007 1.54249 -7.6294e-006 -1.20792e-013 -54.7464 -7.15853 7.36557 2.10593 -0.356748 0.0332334 -92.631 -0.0321808 -179.969 3.4208 -0.773963 -2.25959 149.703 2.7592 172.977 3.4208 -0.773973 2.25975 -32.3397 1.09839 -8.18096 6.74789 1.90735e-006 0 -2.34975e-006 -5.98431e-008 1.96314e-008 
2.10026 66.9006 0.784705 37.8224 -86.559 35.1476 4.76837e-007 4.44089e-016 -1.42109e-014 -89.9986 -0.00147886 -93.5347 -2.28978 -2.39919 5.96046e-008 -75.9707 74.8482 -75.5282 9.67405 3.55271e-015 9.53674e-007 -10.5786 1.04976 9.69744 10.5192 9.53674e-007 -1.90735e-006 -11.6449 19.1421 -12.8051 8.16752 1.90735e-006 3.8147e-006 -25.878 9.75178 -18.2902 2.25281 -0.00395823 -0.139342 40.2581 4.09088 4.31242 -1.53721 1.29414 -2.45539 -71.249 -2.16606 168.799 9.47902 -3.8147e-006 1.06581e-014 -81.7279 1.68241e-005 -1.64473e-006 8.42616 2.13163e-014 0 -51.0157 4.84495 11.2232 1.40146 3.97644 -1.33748 47.857 -48.9634 1.96222 2.94553 3.8147e-006 1.45661e-013 -16.4857 4.6548e-006 2.91646e-006 2.52655 3.8147e-006 -1.06581e-014 -2.31809e-006 1.01206e-005 3.64556e-007 2.09712 6.93134 0.028598 37.7554 9.71993e-006 -6.57784e-006 3.0714 -3.8147e-006 -4.76837e-007 -6.80148 -0.00554644 0.0336684 3.37999 3.81474e-006 -0.000898838 -8.74561e-007 9.77128e-006 -2.19335e-007 -1.8926 1.63523 2.26669 -67.6528 -10.5255 174.384 9.47901 0 1.77636e-015 -61.6041 4.07536e-006 8.92307e-006 8.42617 1.06581e-014 -1.77636e-015 -41.0134 -2.72795 -5.70667 1.40146 3.9762 1.3382 75.8781 44.6978 -22.6225 2.94554 -0.000860214 -0.000804901 -18.5412 0.0139729 -0.024151 2.52657 0.000787735 0.000793457 -179.965 0.00205064 0.0179104 2.09728 6.9313 -0.0273738 26.833 -8.39493e-008 1.25095e-007 3.07141 -1.90735e-006 3.55271e-015 -18.8883 -0.00986424 0.0249797 3.38 0 -4.76837e-007 179.961 -0.001901 -0.00725316 6.17424 -0.00452423 -6.11955e-013 41.3117 -1.7186 -14.0709 6.15898 -2.02443 -2.78435 -177.542 11.5867 77.33 3.43915 -7.6294e-006 -4.54748e-013 -41.17 72.0761 -37.5775 10.2529 -2.28882e-005 -5.72205e-006 -27.8631 -3.01862 -3.70823 16.2051 3.8147e-006 -3.8147e-006 14.2784 13.6058 11.2377 2.25394 2.19923 0.192019 68.522 0.509955 19.4295 2.17808 -1.99631 -0.219315 -70.9036 -0.186227 -0.461957 3.30718 1.42802 0.173882 25.4309 0.510096 9.39325 3.93642 -0.769833 0.58092 -4.56399 2.62821 -6.18905 6.15897 -2.02446 2.78458 0.271619 0.929606 -102.693 3.43915 9.09495e-013 3.8147e-006 65.5849 -50.5998 -5.88688 10.2529 -6.36047e-013 3.8147e-006 34.1719 3.61821 -0.264163 16.2051 -3.8147e-006 -3.8147e-006 -20.698 -3.10031 6.48191 3.30713 -1.42802 0.173901 -23.8811 -0.635467 16.4717 2.25389 -2.19924 0.192037 -68.4659 -0.485248 25.9145 2.17803 1.9963 -0.219301 71.0777 0.183919 -3.36855 3.93638 0.769833 0.580949 0.624063 -2.78233 -2.84146 7.02381 -0.812382 -1.88091e-008 10.998 1.092e-006 9.57709e-006 1.54249 -7.6294e-006 -1.20792e-013 -55.1492 -7.93843 6.26641 2.10593 -0.356748 0.0332334 -92.9423 -0.0311584 -179.97 3.4208 -0.773963 -2.25959 150.079 2.65426 172.534 3.4208 -0.773973 2.25975 -31.4759 1.09724 -7.57051 6.74789 1.90735e-006 4.44089e-016 -2.34975e-006 -5.98431e-008 1.96325e-008 
2.20779 67.239 0.755757 41.9487 -86.345 39.8247 4.76837e-007 0 0 -89.9983 -0.00146657 -93.5346 -2.28978 -2.39919 5.96046e-008 -76.4812 74.5603 -76.7573 9.67405 5.32907e-015 9.53674e-007 -9.92027 -0.0392308 11.0643 10.5192 9.53674e-007 -1.90735e-006 -11.7694 19.6617 -9.00858 8.16752 1.90735e-006 3.8147e-006 -27.1062 9.85967 -14.8477 2.25281 -0.00395823 -0.139342 41.1636 4.35099 4.56597 -1.50238 1.31223 -2.46839 -71.2488 -1.74165 169.212 9.47902 -3.8147e-006 1.06581e-014 -78.6045 0.00215928 -0.000434413 8.42616 1.42109e-014 0 -52.182 4.47311 10.6109 1.40146 3.97644 -1.33748 50.5071 -48.8746 3.95921 2.94553 3.8147e-006 1.35003e-013 -15.3389 2.00515e-006 1.21842e-005 2.52655 3.8147e-006 -2.13163e-014 -2.31809e-006 1.01206e-005 3.64556e-007 2.09712 6.93134 0.028598 39.5241 1.5504e-005 4.96756e-007 3.0714 -3.8147e-006 -4.76837e-007 -5.6397 0.00329234 -0.0488066 3.37999 3.81474e-006 -0.000898838 -8.74574e-007 9.77128e-006 -2.19335e-007 -1.87906 1.67239 2.25073 -68.8467 -10.2805 174.026 9.47901 -7.10543e-015 0 -61.6566 4.12605e-006 8.92808e-006 8.42617 2.13163e-014 1.77636e-015 -40.3618 -3.99448 -6.32008 1.40146 3.9762 1.3382 75.0808 44.9303 -22.0606 2.94554 -0.000860214 -0.000804901 -17.3563 0.00531217 0.00166827 2.52657 0.000787735 0.000793457 -179.965 0.00205064 0.0179104 2.09728 6.9313 -0.0273738 28.5985 -5.46109e-008 1.2205e-007 3.07141 -1.90735e-006 3.55271e-015 -17.6712 -0.00328588 0.00620737 3.38 0 -4.76837e-007 179.961 -0.001901 -0.00725316 6.17424 -0.00452423 -7.11431e-013 40.4631 -1.41325 -13.7921 6.15898 -2.02443 -2.78435 -177.479 11.8493 77.3066 3.43915 -7.6294e-006 -4.54748e-013 -38.9102 69.0653 -37.2632 10.2529 -2.28882e-005 -5.72205e-006 -30.1738 -3.34576 -5.66837 16.2051 3.8147e-006 -3.8147e-006 8.89302 17.5016 7.75131 2.25394 2.19923 0.192019 68.5625 0.521234 14.943 2.17808 -1.99631 -0.219315 -70.9115 -0.189089 -1.71755 3.30718 1.42802 0.173882 26.7325 0.0691349 5.19384 3.93642 -0.769833 0.58092 -4.80526 3.29804 -10.1458 6.15897 -2.02446 2.78458 0.135868 0.332388 -102.493 3.43915 9.09495e-013 3.8147e-006 61.7725 -50.1472 -6.39141 10.2529 -6.39933e-013 3.8147e-006 36.2145 4.86916 -3.39745 16.2051 -3.8147e-006 -3.8147e-006 -15.4119 -6.48201 3.31848 3.30713 -1.42802 0.173901 -24.8024 -0.392367 11.582 2.25389 -2.19924 0.192037 -68.5041 -0.500454 21.6598 2.17803 1.9963 -0.219301 71.0824 0.183088 -4.96622 3.93638 0.769833 0.580949 0.626388 -2.82318 -7.86539 7.02381 -0.812382 -1.86165e-008 10.998 -8.51588e-007 -2.26952e-007 1.54249 -7.6294e-006 -1.25122e-013 -55.5306 -8.72197 5.07287 2.10593 -0.356748 0.0332334 -93.2475 -0.0301513 -179.971 3.4208 -0.773963 -2.25959 150.446 2.54853 172.1 3.4208 -0.773973 2.25975 -30.6289 1.10497 -6.97198 6.74789 1.90735e-006 -6.66134e-016 -2.34975e-006 -5.9843e-008 1.96346e-008 
